<mxfile host="app.diagrams.net" agent="Mozilla/5.0 (X11; Linux x86_64) AppleWebKit/537.36 (KHTML, like Gecko) Chrome/131.0.0.0 Safari/537.36" version="26.0.7">
  <diagram id="aToEdywbOcdsvHlXWydX" name="Page-1">
    <mxGraphModel dx="1140" dy="1580" grid="1" gridSize="10" guides="1" tooltips="1" connect="1" arrows="1" fold="1" page="1" pageScale="1" pageWidth="1100" pageHeight="850" math="0" shadow="0">
      <root>
        <mxCell id="0" />
        <mxCell id="1" parent="0" />
        <mxCell id="P4K3XKW29_5Jf-HjrCSx-24" value="" style="edgeStyle=orthogonalEdgeStyle;rounded=0;orthogonalLoop=1;jettySize=auto;html=1;fontSize=14;" parent="1" edge="1">
          <mxGeometry relative="1" as="geometry">
            <mxPoint x="385" y="460" as="sourcePoint" />
            <mxPoint x="385" y="530" as="targetPoint" />
          </mxGeometry>
        </mxCell>
        <mxCell id="P4K3XKW29_5Jf-HjrCSx-36" value="&lt;font style=&quot;font-size: 18px;&quot;&gt;Nominal&lt;/font&gt;" style="rounded=1;whiteSpace=wrap;html=1;dashed=1;labelPosition=center;verticalLabelPosition=top;align=center;verticalAlign=bottom;" parent="1" vertex="1">
          <mxGeometry x="199" y="-70" width="160" height="460" as="geometry" />
        </mxCell>
        <mxCell id="P4K3XKW29_5Jf-HjrCSx-16" value="Creation of &lt;br style=&quot;font-size: 14px;&quot;&gt;body system" style="rounded=1;whiteSpace=wrap;html=1;fillColor=#dae8fc;strokeColor=#6c8ebf;fontSize=14;" parent="1" vertex="1">
          <mxGeometry x="219" y="280" width="120" height="70" as="geometry" />
        </mxCell>
        <mxCell id="P4K3XKW29_5Jf-HjrCSx-22" value="&lt;font face=&quot;Courier New&quot;&gt;SystemOfBodies&lt;/font&gt;" style="rounded=1;whiteSpace=wrap;html=1;fillColor=#e1d5e7;strokeColor=#9673a6;fontSize=14;" parent="1" vertex="1">
          <mxGeometry x="310" y="500" width="150" height="30" as="geometry" />
        </mxCell>
        <mxCell id="P4K3XKW29_5Jf-HjrCSx-28" style="edgeStyle=orthogonalEdgeStyle;rounded=0;orthogonalLoop=1;jettySize=auto;html=1;fontFamily=Courier New;fontSize=14;" parent="1" source="P4K3XKW29_5Jf-HjrCSx-25" target="P4K3XKW29_5Jf-HjrCSx-16" edge="1">
          <mxGeometry relative="1" as="geometry" />
        </mxCell>
        <mxCell id="P4K3XKW29_5Jf-HjrCSx-29" value="BodyListSettings" style="edgeLabel;html=1;align=center;verticalAlign=middle;resizable=0;points=[];fontSize=14;fontFamily=Courier New;" parent="P4K3XKW29_5Jf-HjrCSx-28" vertex="1" connectable="0">
          <mxGeometry x="-0.125" y="-1" relative="1" as="geometry">
            <mxPoint as="offset" />
          </mxGeometry>
        </mxCell>
        <mxCell id="P4K3XKW29_5Jf-HjrCSx-25" value="Creation of &lt;br style=&quot;font-size: 14px&quot;&gt;body settings" style="rounded=1;whiteSpace=wrap;html=1;fillColor=#dae8fc;strokeColor=#6c8ebf;fontSize=14;" parent="1" vertex="1">
          <mxGeometry x="219" y="130" width="120" height="70" as="geometry" />
        </mxCell>
        <mxCell id="P4K3XKW29_5Jf-HjrCSx-35" style="edgeStyle=orthogonalEdgeStyle;rounded=0;orthogonalLoop=1;jettySize=auto;html=1;exitX=0.5;exitY=1;exitDx=0;exitDy=0;fontFamily=Courier New;fontSize=14;" parent="1" source="P4K3XKW29_5Jf-HjrCSx-31" edge="1">
          <mxGeometry relative="1" as="geometry">
            <mxPoint x="279" y="130" as="targetPoint" />
          </mxGeometry>
        </mxCell>
        <mxCell id="P4K3XKW29_5Jf-HjrCSx-51" value="&lt;span style=&quot;font-family: &amp;#34;courier new&amp;#34;&quot;&gt;BodySettings&lt;/span&gt;" style="edgeLabel;html=1;align=center;verticalAlign=middle;resizable=0;points=[];fontSize=14;fontFamily=Helvetica;" parent="P4K3XKW29_5Jf-HjrCSx-35" vertex="1" connectable="0">
          <mxGeometry x="-0.6467" y="-1" relative="1" as="geometry">
            <mxPoint x="1" y="34" as="offset" />
          </mxGeometry>
        </mxCell>
        <mxCell id="P4K3XKW29_5Jf-HjrCSx-31" value="Default or User-defined &lt;br&gt;body settings" style="rounded=1;whiteSpace=wrap;html=1;fillColor=#dae8fc;strokeColor=#6c8ebf;fontSize=14;" parent="1" vertex="1">
          <mxGeometry x="219" y="-30" width="120" height="70" as="geometry" />
        </mxCell>
        <mxCell id="P4K3XKW29_5Jf-HjrCSx-40" value="&lt;font style=&quot;font-size: 18px;&quot;&gt;Manual&lt;/font&gt;" style="rounded=1;whiteSpace=wrap;html=1;dashed=1;labelPosition=center;verticalLabelPosition=top;align=center;verticalAlign=bottom;" parent="1" vertex="1">
          <mxGeometry x="409" y="-70" width="160" height="460" as="geometry" />
        </mxCell>
        <mxCell id="P4K3XKW29_5Jf-HjrCSx-43" style="edgeStyle=orthogonalEdgeStyle;rounded=0;orthogonalLoop=1;jettySize=auto;html=1;exitX=0.5;exitY=1;exitDx=0;exitDy=0;entryX=0.5;entryY=0;entryDx=0;entryDy=0;fontFamily=Helvetica;fontSize=14;" parent="1" source="P4K3XKW29_5Jf-HjrCSx-41" target="P4K3XKW29_5Jf-HjrCSx-42" edge="1">
          <mxGeometry relative="1" as="geometry" />
        </mxCell>
        <mxCell id="P4K3XKW29_5Jf-HjrCSx-52" value="&lt;font face=&quot;Courier New&quot;&gt;Body&lt;/font&gt;" style="edgeLabel;html=1;align=center;verticalAlign=middle;resizable=0;points=[];fontSize=14;fontFamily=Helvetica;" parent="P4K3XKW29_5Jf-HjrCSx-43" vertex="1" connectable="0">
          <mxGeometry x="0.097" y="-1" relative="1" as="geometry">
            <mxPoint as="offset" />
          </mxGeometry>
        </mxCell>
        <mxCell id="P4K3XKW29_5Jf-HjrCSx-41" value="Creation of&lt;br&gt;empty body" style="rounded=1;whiteSpace=wrap;html=1;fillColor=#dae8fc;strokeColor=#6c8ebf;fontSize=14;" parent="1" vertex="1">
          <mxGeometry x="429" y="40" width="120" height="70" as="geometry" />
        </mxCell>
        <mxCell id="P4K3XKW29_5Jf-HjrCSx-45" style="edgeStyle=orthogonalEdgeStyle;rounded=0;orthogonalLoop=1;jettySize=auto;html=1;exitX=0.5;exitY=1;exitDx=0;exitDy=0;entryX=0.5;entryY=0;entryDx=0;entryDy=0;fontFamily=Helvetica;fontSize=14;" parent="1" source="P4K3XKW29_5Jf-HjrCSx-16" target="P4K3XKW29_5Jf-HjrCSx-22" edge="1">
          <mxGeometry relative="1" as="geometry">
            <Array as="points">
              <mxPoint x="279" y="420" />
              <mxPoint x="385" y="420" />
            </Array>
            <mxPoint x="385" y="530" as="targetPoint" />
          </mxGeometry>
        </mxCell>
        <mxCell id="P4K3XKW29_5Jf-HjrCSx-42" value="Addition of&lt;br&gt;body properties" style="rounded=1;whiteSpace=wrap;html=1;fillColor=#dae8fc;strokeColor=#6c8ebf;fontSize=14;" parent="1" vertex="1">
          <mxGeometry x="429" y="210" width="120" height="70" as="geometry" />
        </mxCell>
        <mxCell id="c9JJ2Y3SZzoH1PMOvmYE-2" value="" style="rounded=1;whiteSpace=wrap;html=1;labelPosition=left;verticalLabelPosition=top;align=right;verticalAlign=bottom;" parent="1" vertex="1">
          <mxGeometry x="590" y="290" width="200" height="240" as="geometry" />
        </mxCell>
        <mxCell id="c9JJ2Y3SZzoH1PMOvmYE-3" value="Input" style="rounded=1;whiteSpace=wrap;html=1;fillColor=#dae8fc;strokeColor=#6c8ebf;" parent="1" vertex="1">
          <mxGeometry x="650" y="400" width="80" height="30" as="geometry" />
        </mxCell>
        <mxCell id="c9JJ2Y3SZzoH1PMOvmYE-4" value="LEGEND:" style="text;html=1;align=center;verticalAlign=middle;resizable=0;points=[];autosize=1;strokeColor=none;fillColor=none;" parent="1" vertex="1">
          <mxGeometry x="655" y="340" width="70" height="20" as="geometry" />
        </mxCell>
        <mxCell id="c9JJ2Y3SZzoH1PMOvmYE-5" value="Output" style="rounded=1;whiteSpace=wrap;html=1;fillColor=#e1d5e7;strokeColor=#9673a6;fontFamily=Courier New;" parent="1" vertex="1">
          <mxGeometry x="650" y="450" width="80" height="30" as="geometry" />
        </mxCell>
        <mxCell id="c9JJ2Y3SZzoH1PMOvmYE-7" value="&lt;font face=&quot;Courier New&quot; style=&quot;font-size: 14px&quot;&gt;TudatPy_object&lt;/font&gt;" style="edgeStyle=orthogonalEdgeStyle;rounded=0;orthogonalLoop=1;jettySize=auto;html=1;" parent="1" edge="1">
          <mxGeometry relative="1" as="geometry">
            <mxPoint x="600" y="500" as="sourcePoint" />
            <mxPoint x="780" y="500" as="targetPoint" />
            <mxPoint x="-1" as="offset" />
          </mxGeometry>
        </mxCell>
        <mxCell id="c9JJ2Y3SZzoH1PMOvmYE-8" value="&lt;span style=&quot;color: rgb(0 , 0 , 0) ; font-family: &amp;#34;courier new&amp;#34; ; font-style: normal ; font-weight: normal ; letter-spacing: normal ; text-align: center ; text-indent: 0px ; text-transform: none ; word-spacing: 0px ; background-color: rgb(248 , 249 , 250) ; text-decoration: none ; display: inline ; float: none&quot;&gt;&lt;font style=&quot;font-size: 14px&quot;&gt;tudatpy_module&lt;/font&gt;&lt;/span&gt;" style="text;whiteSpace=wrap;html=1;fontFamily=Courier New;" parent="1" vertex="1">
          <mxGeometry x="635" y="360" width="110" height="30" as="geometry" />
        </mxCell>
        <mxCell id="ZoQ-ZA_fxXHTSafb2_SR-3" style="edgeStyle=orthogonalEdgeStyle;rounded=0;orthogonalLoop=1;jettySize=auto;html=1;entryX=0.5;entryY=0;entryDx=0;entryDy=0;fontFamily=Helvetica;fontSize=14;exitX=0.5;exitY=1;exitDx=0;exitDy=0;" edge="1" parent="1" source="P4K3XKW29_5Jf-HjrCSx-42" target="P4K3XKW29_5Jf-HjrCSx-22">
          <mxGeometry relative="1" as="geometry">
            <Array as="points">
              <mxPoint x="489" y="420" />
              <mxPoint x="385" y="420" />
            </Array>
            <mxPoint x="395" y="510" as="targetPoint" />
            <mxPoint x="340" y="390" as="sourcePoint" />
          </mxGeometry>
        </mxCell>
      </root>
    </mxGraphModel>
  </diagram>
</mxfile>
